<?xml version="1.0"?>
<svg xmlns="http://www.w3.org/2000/svg" viewBox="0 0 128 128" width="512" height="512"><g id="Layer_2" data-name="Layer 2"><path d="M82.725,27.12l-.757-1.241A6.8,6.8,0,0,0,77.083,22.7V14.116a1.749,1.749,0,0,0-1.75-1.75H74V7.048A6.758,6.758,0,0,0,67.25.3h-6.5A6.758,6.758,0,0,0,54,7.048v5.318H52.667a1.749,1.749,0,0,0-1.75,1.75v8.529h-.042a6.769,6.769,0,0,0-5.847,3.377l-1.159,2.009A111.906,111.906,0,0,0,28.917,83.873V116.25A11.763,11.763,0,0,0,40.667,128H87.333a11.763,11.763,0,0,0,11.75-11.75V85.331A111.715,111.715,0,0,0,82.725,27.12Zm-40.3,87.372V87.5H95.583v7.531h-44.9a1.75,1.75,0,1,0,0,3.5h44.9v5.953h-44.9a1.75,1.75,0,0,0,0,3.5h44.9v6.508ZM57.5,7.048A3.254,3.254,0,0,1,60.75,3.8h6.5a3.254,3.254,0,0,1,3.25,3.25v5.318h-13Zm-3.083,8.818H73.583v6.779H54.417ZM87.333,124.5H40.667a8.259,8.259,0,0,1-8.25-8.25V83.873A108.407,108.407,0,0,1,46.9,29.78l1.16-2.009a3.259,3.259,0,0,1,2.815-1.626H76.206A3.269,3.269,0,0,1,78.98,27.7l.758,1.24A108.21,108.21,0,0,1,95.561,84H40.675a1.75,1.75,0,0,0-1.75,1.75v30.492a1.75,1.75,0,0,0,1.75,1.75H95.4A8.263,8.263,0,0,1,87.333,124.5Z"/><path d="M69.667,75.417H80.841a6.765,6.765,0,0,0,6.647-7.963A101.327,101.327,0,0,0,74.9,33.5a1.749,1.749,0,0,0-1.506-.858H69.667a6.757,6.757,0,0,0-6.75,6.75V68.667A6.757,6.757,0,0,0,69.667,75.417ZM66.417,39.4a3.254,3.254,0,0,1,3.25-3.25h2.719A97.808,97.808,0,0,1,84.042,68.068a3.273,3.273,0,0,1-.713,2.686,3.237,3.237,0,0,1-2.488,1.163H69.667a3.254,3.254,0,0,1-3.25-3.25Z"/></g></svg>
