<?xml version="1.0" encoding="iso-8859-1"?>
<!-- Generator: Adobe Illustrator 19.0.0, SVG Export Plug-In . SVG Version: 6.00 Build 0)  -->
<svg version="1.1" id="Capa_1" xmlns="http://www.w3.org/2000/svg" xmlns:xlink="http://www.w3.org/1999/xlink" x="0px" y="0px"
	 viewBox="0 0 512 512" style="enable-background:new 0 0 512 512;" xml:space="preserve">
<g>
	<g>
		<path d="M437.02,74.98C388.667,26.629,324.38,0,256,0S123.333,26.629,74.98,74.98C26.629,123.333,0,187.62,0,256
			s26.629,132.667,74.98,181.02C123.333,485.371,187.62,512,256,512s132.667-26.629,181.02-74.98
			C485.371,388.667,512,324.38,512,256S485.371,123.333,437.02,74.98z M426.413,426.413C380.894,471.932,320.374,497,256,497
			s-124.894-25.068-170.413-70.587C40.068,380.894,15,320.374,15,256S40.068,131.106,85.587,85.587
			C131.106,40.068,191.626,15,256,15s124.894,25.068,170.413,70.587C471.932,131.106,497,191.626,497,256
			S471.932,380.894,426.413,426.413z"/>
	</g>
</g>
<g>
	<g>
		<path d="M256,48.097C141.362,48.097,48.097,141.362,48.097,256S141.362,463.903,256,463.903S463.903,370.638,463.903,256
			S370.638,48.097,256,48.097z M256,448.903c-106.367,0-192.903-86.536-192.903-192.903S149.633,63.097,256,63.097
			c78.469,0,146.137,47.1,176.24,114.51l-17.405,2.901c-9.982-20.929-24.264-40.041-41.581-55.547
			c-3.086-2.763-7.828-2.501-10.59,0.584c-2.763,3.086-2.501,7.827,0.584,10.59c15.31,13.708,28.025,30.494,37.104,48.88
			c-9.436,5.512-15.579,15.704-15.579,27.228v41.276c-3.913,1.65-8.969,2.997-16.591,2.997c-12.048,0-17.753-3.257-24.359-7.029
			c-7.391-4.22-15.767-9.003-31.796-9.003c-16.021,0-24.393,4.784-31.779,9.004c-6.6,3.771-12.3,7.028-24.337,7.028
			c-12.024,0-17.718-3.256-24.311-7.027c-7.381-4.221-15.747-9.005-31.757-9.005c-16.017,0-24.386,4.784-31.771,9.004
			c-3.596,2.055-4.845,6.637-2.79,10.233c2.055,3.596,6.636,4.845,10.233,2.79c6.597-3.771,12.295-7.027,24.327-7.027
			c12.023,0,17.717,3.256,24.311,7.027c7.381,4.221,15.747,9.005,31.757,9.005c16.021,0,24.393-4.784,31.779-9.004
			c6.6-3.771,12.3-7.028,24.338-7.028c12.048,0,17.753,3.257,24.359,7.029c7.391,4.22,15.767,9.003,31.796,9.003
			c6.708,0,12.098-0.86,16.591-2.135v30.376c0,11.527,6.145,21.721,15.586,27.232c-26.975,54.787-82.952,89.85-144.36,89.85
			C167.312,416.839,95.16,344.687,95.16,256c0-0.001,0-0.002,0-0.003c7.237,1.053,11.772,3.629,16.819,6.515
			c7.383,4.221,15.751,9.005,31.765,9.005c4.142,0,7.5-3.358,7.5-7.5c0-4.142-3.358-7.5-7.5-7.5
			c-12.028,0-17.724-3.256-24.319-7.027c-6.005-3.433-12.663-7.238-23.555-8.539c7.615-81.657,76.518-145.79,160.13-145.79
			c29.845,0,58.978,8.231,84.251,23.805c3.526,2.173,8.147,1.076,10.32-2.451c2.173-3.527,1.076-8.147-2.451-10.32
			C320.48,89.164,288.625,80.161,256,80.161c-96.958,0-175.839,78.881-175.839,175.839S159.042,431.839,256,431.839
			c67.921,0,129.766-39.237,158.844-100.345l17.396,2.899C402.137,401.803,334.469,448.903,256,448.903z M413.602,316.081
			c-8.012-1.335-13.828-8.2-13.828-16.323v-87.514c0-8.123,5.815-14.988,13.828-16.323l24.326-4.054
			c7.098,20.075,10.975,41.659,10.975,64.135s-3.877,44.057-10.975,64.133L413.602,316.081z"/>
	</g>
</g>
<g>
	<g>
		<path d="M223.936,176.355c-12.976,0-23.532,10.557-23.532,23.532c0,12.975,10.557,23.532,23.532,23.532
			c12.975,0,23.532-10.557,23.532-23.532C247.468,186.912,236.911,176.355,223.936,176.355z M223.936,208.419
			c-4.705,0-8.532-3.828-8.532-8.532c0-4.704,3.828-8.532,8.532-8.532c4.704,0,8.532,3.828,8.532,8.532
			C232.468,204.591,228.64,208.419,223.936,208.419z"/>
	</g>
</g>
<g>
	<g>
		<path d="M280.048,136.274c-8.556,0-15.516,6.96-15.516,15.516c0,8.556,6.96,15.516,15.516,15.516
			c8.556,0,15.516-6.96,15.516-15.516C295.564,143.234,288.604,136.274,280.048,136.274z"/>
	</g>
</g>
<g>
	<g>
		<path d="M316.121,184.371c-6.346,0-11.508,5.163-11.508,11.508c0,6.346,5.163,11.508,11.508,11.508
			c6.345,0,11.508-5.163,11.508-11.508C327.629,189.534,322.466,184.371,316.121,184.371z"/>
	</g>
</g>
<g>
</g>
<g>
</g>
<g>
</g>
<g>
</g>
<g>
</g>
<g>
</g>
<g>
</g>
<g>
</g>
<g>
</g>
<g>
</g>
<g>
</g>
<g>
</g>
<g>
</g>
<g>
</g>
<g>
</g>
</svg>
