<?xml version="1.0" encoding="iso-8859-1"?>
<!-- Generator: Adobe Illustrator 19.0.0, SVG Export Plug-In . SVG Version: 6.00 Build 0)  -->
<svg version="1.1" id="Layer_1" xmlns="http://www.w3.org/2000/svg" xmlns:xlink="http://www.w3.org/1999/xlink" x="0px" y="0px"
	 viewBox="0 0 512 512" style="enable-background:new 0 0 512 512;" xml:space="preserve">
<g>
	<g>
		<path d="M499.43,61.202c-8.182-1.345-15.891,4.195-17.233,12.37l-8.834,53.78c-29.306-13.595-63.199-9.786-89.984,11.642
			c-21.611,17.289-50.65,17.288-72.258,0c-16.059-12.846-34.859-19.637-54.37-19.637s-38.313,6.79-54.369,19.637
			c-21.612,17.289-50.65,17.288-72.258,0c-27.362-21.889-61.778-25.44-91.38-11.011l-8.938-54.411
			c-1.343-8.174-9.051-13.713-17.233-12.37C4.396,62.545-1.142,70.26,0.201,78.435l51.042,310.73
			c0.014,0.084,0.028,0.168,0.044,0.252c6.488,35.684,37.521,61.582,73.79,61.582h261.848c36.269,0,67.302-25.9,73.79-61.582
			c0.015-0.084,0.029-0.168,0.043-0.252L511.8,78.435C513.143,70.26,507.604,62.545,499.43,61.202z M431.176,384.168
			c-3.939,21.35-22.531,36.833-44.253,36.833H125.076c-21.722,0-40.313-15.483-44.253-36.833l-36.89-224.58
			c21.086-14.514,46.828-13.663,67.446,2.832c32.866,26.292,76.966,26.22,109.74,0c21.644-17.315,49.615-17.315,71.258,0
			c32.865,26.292,76.965,26.22,109.74,0c20.084-16.067,45.276-17.253,66.094-3.725L431.176,384.168z"/>
	</g>
</g>
<g>
</g>
<g>
</g>
<g>
</g>
<g>
</g>
<g>
</g>
<g>
</g>
<g>
</g>
<g>
</g>
<g>
</g>
<g>
</g>
<g>
</g>
<g>
</g>
<g>
</g>
<g>
</g>
<g>
</g>
</svg>
